<svg xlink="http://www.w3.org/1999/xlink" viewBox="0 0 5000 5000" xmlns="http://www.w3.org/2000/svg" style="transform: scale(1);"><defs><filter id="goo"><feGaussianBlur in="SourceGraphic" stdDeviation="2.7" result="blur"></feGaussianBlur><feColorMatrix in="blur" type="matrix" values="1 0 0 0 0 0 1 0 0 0 0 0 1 0 0 0 0 0 19 -9" result="good"></feColorMatrix><feComposite in="SourceGraphic" in2="goo" operator="atop"></feComposite></filter><path d="M351,269L300,340L149,231L179,175L351,269z" id="P0"></path><path d="M214,389L114,294L294,114L348,146L214,389z" id="P1"></path><path d="M355,299L250,366L140,214L228,136L355,299z" id="P2"></path><path d="M334,239L319,300L166,261L209,176L334,239z" id="P3"></path><path d="M367,324L338,356L125,191L184,129L367,324z" id="P4"></path><path d="M171,240L225,174L329,235L279,324L171,240z" id="P5"></path><path d="M119,216L216,119L384,267L342,348L119,216z" id="P6"></path><path d="M287,106L392,204L213,394L135,345L287,106z" id="P7"></path><path d="M102,259L130,163L397,269L364,344L102,259z" id="P8"></path><path d="M143,339L113,276L357,161L387,276L143,339z" id="P9"></path><path d="M339,306L282,350L155,205L211,152L339,306z" id="P10"></path><path d="M212,103L373,161L288,397L185,388L212,103z" id="P11"></path><path d="M283,380L242,384L209,123L275,118L283,380z" id="P12"></path><path d="M204,167L290,164L285,338L238,344L204,167z" id="P13"></path></defs><rect id="RECT" width="5000" height="5000" fill="#E1B3E7"></rect><g id="group" fill="#A247A6" filter="url(#goo)" opacity="0.79"><use x="-75" y="-125" href="#P8"></use><use x="-141" y="64" href="#P5"></use><use x="-76" y="141" href="#P12"></use><use x="-124" y="373" href="#P10"></use><use x="-92" y="526" href="#P0"></use><use x="-114" y="664" href="#P6"></use><use x="-228" y="1024" href="#P10"></use><use x="-56" y="1087" href="#P13"></use><use x="-116" y="1399" href="#P11"></use><use x="-78" y="1488" href="#P1"></use><use x="-231" y="1748" href="#P12"></use><use x="-98" y="1853" href="#P0"></use><use x="-121" y="2245" href="#P8"></use><use x="-159" y="2347" href="#P9"></use><use x="-128" y="2534" href="#P12"></use><use x="-149" y="2783" href="#P11"></use><use x="-139" y="3018" href="#P2"></use><use x="-193" y="3220" href="#P8"></use><use x="-267" y="3351" href="#P2"></use><use x="-186" y="3460" href="#P1"></use><use x="-264" y="3740" href="#P0"></use><use x="-167" y="3945" href="#P1"></use><use x="-215" y="4086" href="#P8"></use><use x="-181" y="4317" href="#P4"></use><use x="-260" y="4545" href="#P5"></use><use x="-238" y="4774" href="#P0"></use><use x="-161" y="4976" href="#P8"></use><use x="-144" y="5171" href="#P9"></use><use x="-248" y="5373" href="#P0"></use><use x="21" y="-168" href="#P7"></use><use x="16" y="41" href="#P10"></use><use x="51" y="150" href="#P7"></use><use x="122" y="455" href="#P2"></use><use x="1" y="534" href="#P13"></use><use x="13" y="774" href="#P12"></use><use x="65" y="936" href="#P4"></use><use x="92" y="1160" href="#P10"></use><use x="81" y="1370" href="#P12"></use><use x="30" y="1505" href="#P4"></use><use x="10" y="1673" href="#P13"></use><use x="-4" y="2034" href="#P13"></use><use x="-13" y="2251" href="#P8"></use><use x="-47" y="2439" href="#P12"></use><use x="27" y="2549" href="#P6"></use><use x="14" y="2747" href="#P7"></use><use x="13" y="2950" href="#P1"></use><use x="54" y="3143" href="#P13"></use><use x="-17" y="3237" href="#P13"></use><use x="-10" y="3594" href="#P2"></use><use x="-110" y="3650" href="#P7"></use><use x="-7" y="3964" href="#P10"></use><use x="-87" y="4107" href="#P13"></use><use x="-32" y="4414" href="#P13"></use><use x="-80" y="4524" href="#P9"></use><use x="6" y="4676" href="#P9"></use><use x="70" y="4994" href="#P11"></use><use x="-12" y="5100" href="#P7"></use><use x="68" y="5249" href="#P13"></use><use x="127" y="-129" href="#P11"></use><use x="242" y="66" href="#P10"></use><use x="226" y="198" href="#P8"></use><use x="156" y="360" href="#P13"></use><use x="191" y="562" href="#P3"></use><use x="285" y="660" href="#P0"></use><use x="148" y="862" href="#P1"></use><use x="168" y="1056" href="#P3"></use><use x="145" y="1369" href="#P1"></use><use x="154" y="1575" href="#P3"></use><use x="224" y="1646" href="#P10"></use><use x="203" y="1993" href="#P0"></use><use x="175" y="2247" href="#P10"></use><use x="267" y="2422" href="#P6"></use><use x="121" y="2470" href="#P1"></use><use x="198" y="2651" href="#P5"></use><use x="269" y="2960" href="#P1"></use><use x="107" y="3189" href="#P13"></use><use x="167" y="3285" href="#P0"></use><use x="119" y="3489" href="#P13"></use><use x="266" y="3791" href="#P9"></use><use x="178" y="3926" href="#P8"></use><use x="223" y="4212" href="#P9"></use><use x="224" y="4460" href="#P11"></use><use x="183" y="4483" href="#P9"></use><use x="171" y="4823" href="#P3"></use><use x="242" y="4958" href="#P13"></use><use x="149" y="5073" href="#P1"></use><use x="256" y="5402" href="#P5"></use><use x="421" y="-148" href="#P10"></use><use x="397" y="89" href="#P0"></use><use x="324" y="243" href="#P0"></use><use x="441" y="436" href="#P2"></use><use x="333" y="645" href="#P2"></use><use x="364" y="690" href="#P10"></use><use x="493" y="878" href="#P0"></use><use x="372" y="1106" href="#P13"></use><use x="336" y="1351" href="#P8"></use><use x="515" y="1498" href="#P8"></use><use x="497" y="1677" href="#P11"></use><use x="451" y="1880" href="#P5"></use><use x="395" y="2164" href="#P6"></use><use x="387" y="2297" href="#P7"></use><use x="441" y="2489" href="#P12"></use><use x="439" y="2704" href="#P9"></use><use x="480" y="2900" href="#P0"></use><use x="321" y="3199" href="#P5"></use><use x="343" y="3264" href="#P13"></use><use x="386" y="3539" href="#P6"></use><use x="294" y="3637" href="#P5"></use><use x="353" y="3871" href="#P7"></use><use x="460" y="4087" href="#P1"></use><use x="381" y="4375" href="#P7"></use><use x="369" y="4509" href="#P6"></use><use x="457" y="4776" href="#P0"></use><use x="311" y="4918" href="#P4"></use><use x="394" y="5131" href="#P9"></use><use x="386" y="5329" href="#P2"></use><use x="547" y="-103" href="#P7"></use><use x="665" y="73" href="#P10"></use><use x="589" y="163" href="#P0"></use><use x="660" y="336" href="#P13"></use><use x="511" y="522" href="#P6"></use><use x="599" y="820" href="#P1"></use><use x="655" y="899" href="#P8"></use><use x="582" y="1174" href="#P5"></use><use x="618" y="1263" href="#P6"></use><use x="578" y="1433" href="#P1"></use><use x="695" y="1814" href="#P6"></use><use x="537" y="1990" href="#P7"></use><use x="537" y="2164" href="#P13"></use><use x="659" y="2362" href="#P6"></use><use x="608" y="2478" href="#P11"></use><use x="579" y="2684" href="#P4"></use><use x="627" y="2903" href="#P7"></use><use x="494" y="3015" href="#P0"></use><use x="524" y="3335" href="#P12"></use><use x="484" y="3580" href="#P12"></use><use x="586" y="3649" href="#P2"></use><use x="558" y="3966" href="#P9"></use><use x="674" y="4187" href="#P2"></use><use x="583" y="4332" href="#P3"></use><use x="547" y="4497" href="#P7"></use><use x="678" y="4755" href="#P10"></use><use x="496" y="4941" href="#P8"></use><use x="568" y="5115" href="#P6"></use><use x="668" y="5428" href="#P10"></use><use x="723" y="-188" href="#P0"></use><use x="728" y="111" href="#P7"></use><use x="688" y="268" href="#P13"></use><use x="765" y="365" href="#P0"></use><use x="713" y="561" href="#P12"></use><use x="861" y="725" href="#P10"></use><use x="865" y="1000" href="#P0"></use><use x="812" y="1163" href="#P10"></use><use x="840" y="1243" href="#P1"></use><use x="794" y="1554" href="#P10"></use><use x="769" y="1681" href="#P5"></use><use x="759" y="2013" href="#P8"></use><use x="738" y="2210" href="#P4"></use><use x="816" y="2391" href="#P4"></use><use x="775" y="2484" href="#P0"></use><use x="869" y="2784" href="#P12"></use><use x="849" y="2861" href="#P3"></use><use x="714" y="3130" href="#P12"></use><use x="699" y="3299" href="#P5"></use><use x="820" y="3495" href="#P8"></use><use x="878" y="3681" href="#P3"></use><use x="702" y="3956" href="#P1"></use><use x="834" y="4126" href="#P9"></use><use x="788" y="4377" href="#P3"></use><use x="887" y="4625" href="#P12"></use><use x="786" y="4839" href="#P12"></use><use x="867" y="4886" href="#P4"></use><use x="709" y="5196" href="#P3"></use><use x="873" y="5343" href="#P3"></use><use x="1003" y="-150" href="#P6"></use><use x="885" y="55" href="#P6"></use><use x="869" y="178" href="#P8"></use><use x="898" y="362" href="#P3"></use><use x="1047" y="580" href="#P6"></use><use x="987" y="863" href="#P6"></use><use x="904" y="1049" href="#P3"></use><use x="990" y="1074" href="#P0"></use><use x="951" y="1393" href="#P3"></use><use x="1100" y="1659" href="#P9"></use><use x="1090" y="1805" href="#P13"></use><use x="975" y="1881" href="#P11"></use><use x="1103" y="2074" href="#P6"></use><use x="939" y="2375" href="#P5"></use><use x="1016" y="2525" href="#P11"></use><use x="1040" y="2728" href="#P4"></use><use x="1058" y="2968" href="#P5"></use><use x="939" y="3061" href="#P12"></use><use x="963" y="3329" href="#P11"></use><use x="1101" y="3534" href="#P9"></use><use x="973" y="3776" href="#P12"></use><use x="898" y="3992" href="#P13"></use><use x="948" y="4243" href="#P1"></use><use x="990" y="4350" href="#P12"></use><use x="981" y="4648" href="#P7"></use><use x="904" y="4780" href="#P1"></use><use x="976" y="5048" href="#P10"></use><use x="1110" y="5115" href="#P8"></use><use x="1085" y="5354" href="#P6"></use><use x="1076" y="-133" href="#P10"></use><use x="1135" y="125" href="#P10"></use><use x="1074" y="215" href="#P3"></use><use x="1134" y="390" href="#P5"></use><use x="1155" y="589" href="#P8"></use><use x="1124" y="726" href="#P6"></use><use x="1255" y="978" href="#P2"></use><use x="1082" y="1254" href="#P3"></use><use x="1123" y="1339" href="#P13"></use><use x="1288" y="1588" href="#P2"></use><use x="1247" y="1834" href="#P6"></use><use x="1127" y="1927" href="#P6"></use><use x="1295" y="2175" href="#P5"></use><use x="1157" y="2237" href="#P2"></use><use x="1224" y="2477" href="#P8"></use><use x="1150" y="2721" href="#P0"></use><use x="1227" y="2914" href="#P3"></use><use x="1158" y="3129" href="#P2"></use><use x="1330" y="3244" href="#P0"></use><use x="1214" y="3476" href="#P11"></use><use x="1116" y="3743" href="#P13"></use><use x="1160" y="3859" href="#P3"></use><use x="1279" y="4145" href="#P1"></use><use x="1186" y="4359" href="#P12"></use><use x="1194" y="4556" href="#P6"></use><use x="1118" y="4874" href="#P11"></use><use x="1152" y="4953" href="#P6"></use><use x="1169" y="5096" href="#P13"></use><use x="1231" y="5355" href="#P13"></use><use x="1298" y="-96" href="#P11"></use><use x="1393" y="122" href="#P8"></use><use x="1387" y="180" href="#P9"></use><use x="1359" y="415" href="#P7"></use><use x="1417" y="693" href="#P6"></use><use x="1277" y="757" href="#P9"></use><use x="1281" y="883" href="#P11"></use><use x="1369" y="1110" href="#P8"></use><use x="1317" y="1349" href="#P7"></use><use x="1332" y="1558" href="#P4"></use><use x="1395" y="1803" href="#P13"></use><use x="1375" y="1909" href="#P8"></use><use x="1327" y="2092" href="#P10"></use><use x="1403" y="2226" href="#P2"></use><use x="1483" y="2579" href="#P12"></use><use x="1494" y="2706" href="#P7"></use><use x="1382" y="2929" href="#P0"></use><use x="1407" y="3171" href="#P3"></use><use x="1392" y="3302" href="#P1"></use><use x="1382" y="3440" href="#P0"></use><use x="1438" y="3843" href="#P1"></use><use x="1361" y="3981" href="#P7"></use><use x="1365" y="4162" href="#P6"></use><use x="1412" y="4478" href="#P12"></use><use x="1451" y="4610" href="#P7"></use><use x="1474" y="4797" href="#P13"></use><use x="1510" y="4911" href="#P7"></use><use x="1462" y="5173" href="#P6"></use><use x="1521" y="5329" href="#P9"></use><use x="1537" y="-171" href="#P7"></use><use x="1595" y="25" href="#P12"></use><use x="1488" y="255" href="#P0"></use><use x="1484" y="333" href="#P10"></use><use x="1632" y="556" href="#P2"></use><use x="1633" y="830" href="#P12"></use><use x="1622" y="1068" href="#P4"></use><use x="1601" y="1114" href="#P6"></use><use x="1658" y="1438" href="#P5"></use><use x="1672" y="1635" href="#P10"></use><use x="1678" y="1694" href="#P9"></use><use x="1650" y="1935" href="#P13"></use><use x="1563" y="2065" href="#P5"></use><use x="1605" y="2229" href="#P11"></use><use x="1592" y="2508" href="#P2"></use><use x="1615" y="2767" href="#P8"></use><use x="1544" y="2946" href="#P10"></use><use x="1580" y="3152" href="#P2"></use><use x="1736" y="3307" href="#P12"></use><use x="1585" y="3547" href="#P2"></use><use x="1633" y="3675" href="#P7"></use><use x="1687" y="3934" href="#P2"></use><use x="1648" y="4271" href="#P7"></use><use x="1647" y="4320" href="#P8"></use><use x="1670" y="4520" href="#P9"></use><use x="1742" y="4758" href="#P8"></use><use x="1592" y="5052" href="#P10"></use><use x="1585" y="5087" href="#P5"></use><use x="1536" y="5371" href="#P13"></use><use x="1733" y="-102" href="#P10"></use><use x="1815" y="-49" href="#P6"></use><use x="1695" y="271" href="#P9"></use><use x="1738" y="456" href="#P9"></use><use x="1713" y="631" href="#P8"></use><use x="1692" y="790" href="#P12"></use><use x="1774" y="919" href="#P8"></use><use x="1856" y="1226" href="#P9"></use><use x="1840" y="1425" href="#P0"></use><use x="1793" y="1619" href="#P13"></use><use x="1835" y="1818" href="#P13"></use><use x="1839" y="1840" href="#P9"></use><use x="1772" y="2157" href="#P4"></use><use x="1912" y="2314" href="#P9"></use><use x="1762" y="2447" href="#P1"></use><use x="1876" y="2610" href="#P13"></use><use x="1877" y="2935" href="#P5"></use><use x="1917" y="3009" href="#P13"></use><use x="1860" y="3273" href="#P5"></use><use x="1883" y="3487" href="#P5"></use><use x="1888" y="3714" href="#P8"></use><use x="1914" y="3858" href="#P4"></use><use x="1911" y="4074" href="#P7"></use><use x="1941" y="4395" href="#P6"></use><use x="1815" y="4602" href="#P11"></use><use x="1911" y="4737" href="#P8"></use><use x="1873" y="5012" href="#P0"></use><use x="1768" y="5267" href="#P11"></use><use x="1927" y="5303" href="#P12"></use><use x="2005" y="-220" href="#P1"></use><use x="1981" y="131" href="#P4"></use><use x="1992" y="188" href="#P3"></use><use x="2033" y="362" href="#P13"></use><use x="1965" y="656" href="#P4"></use><use x="1984" y="724" href="#P4"></use><use x="1983" y="1089" href="#P12"></use><use x="2050" y="1301" href="#P11"></use><use x="1995" y="1431" href="#P9"></use><use x="1969" y="1581" href="#P12"></use><use x="1944" y="1808" href="#P9"></use><use x="2102" y="1893" href="#P8"></use><use x="1951" y="2097" href="#P1"></use><use x="2105" y="2384" href="#P10"></use><use x="1976" y="2561" href="#P0"></use><use x="2136" y="2746" href="#P0"></use><use x="2154" y="2889" href="#P5"></use><use x="1988" y="3087" href="#P13"></use><use x="2039" y="3374" href="#P8"></use><use x="2173" y="3583" href="#P5"></use><use x="2178" y="3740" href="#P8"></use><use x="2165" y="4052" href="#P2"></use><use x="2105" y="4238" href="#P13"></use><use x="2056" y="4402" href="#P11"></use><use x="2151" y="4584" href="#P10"></use><use x="2055" y="4703" href="#P13"></use><use x="2007" y="5040" href="#P5"></use><use x="1965" y="5079" href="#P12"></use><use x="2088" y="5425" href="#P6"></use><use x="2143" y="-55" href="#P5"></use><use x="2279" y="58" href="#P10"></use><use x="2242" y="200" href="#P6"></use><use x="2228" y="416" href="#P2"></use><use x="2177" y="690" href="#P3"></use><use x="2227" y="787" href="#P8"></use><use x="2123" y="968" href="#P2"></use><use x="2097" y="1107" href="#P8"></use><use x="2210" y="1450" href="#P3"></use><use x="2168" y="1642" href="#P3"></use><use x="2137" y="1724" href="#P13"></use><use x="2190" y="1992" href="#P12"></use><use x="2204" y="2213" href="#P12"></use><use x="2247" y="2266" href="#P5"></use><use x="2279" y="2538" href="#P6"></use><use x="2350" y="2736" href="#P10"></use><use x="2200" y="2967" href="#P3"></use><use x="2220" y="3018" href="#P4"></use><use x="2303" y="3229" href="#P9"></use><use x="2336" y="3452" href="#P5"></use><use x="2380" y="3794" href="#P1"></use><use x="2209" y="4020" href="#P7"></use><use x="2360" y="4222" href="#P2"></use><use x="2338" y="4444" href="#P13"></use><use x="2238" y="4472" href="#P1"></use><use x="2242" y="4802" href="#P13"></use><use x="2250" y="4941" href="#P11"></use><use x="2310" y="5179" href="#P6"></use><use x="2154" y="5341" href="#P8"></use><use x="2432" y="-129" href="#P8"></use><use x="2470" y="42" href="#P4"></use><use x="2431" y="142" href="#P11"></use><use x="2439" y="389" href="#P11"></use><use x="2367" y="591" href="#P6"></use><use x="2363" y="770" href="#P7"></use><use x="2295" y="1092" href="#P10"></use><use x="2248" y="1187" href="#P9"></use><use x="2350" y="1346" href="#P2"></use><use x="2420" y="1522" href="#P6"></use><use x="2350" y="1736" href="#P12"></use><use x="2390" y="1915" href="#P1"></use><use x="2442" y="2076" href="#P7"></use><use x="2490" y="2391" href="#P1"></use><use x="2475" y="2450" href="#P13"></use><use x="2429" y="2648" href="#P1"></use><use x="2414" y="2912" href="#P1"></use><use x="2447" y="3047" href="#P12"></use><use x="2553" y="3257" href="#P11"></use><use x="2494" y="3438" href="#P1"></use><use x="2498" y="3700" href="#P6"></use><use x="2388" y="3853" href="#P0"></use><use x="2551" y="4107" href="#P13"></use><use x="2433" y="4456" href="#P11"></use><use x="2388" y="4570" href="#P0"></use><use x="2420" y="4802" href="#P1"></use><use x="2460" y="4953" href="#P10"></use><use x="2507" y="5229" href="#P9"></use><use x="2363" y="5295" href="#P12"></use><use x="2602" y="-226" href="#P5"></use><use x="2564" y="10" href="#P7"></use><use x="2565" y="165" href="#P6"></use><use x="2546" y="299" href="#P10"></use><use x="2492" y="487" href="#P7"></use><use x="2616" y="791" href="#P0"></use><use x="2576" y="1086" href="#P5"></use><use x="2572" y="1205" href="#P2"></use><use x="2533" y="1337" href="#P9"></use><use x="2482" y="1606" href="#P11"></use><use x="2568" y="1786" href="#P12"></use><use x="2621" y="1907" href="#P12"></use><use x="2612" y="2157" href="#P11"></use><use x="2586" y="2396" href="#P7"></use><use x="2692" y="2458" href="#P3"></use><use x="2737" y="2662" href="#P1"></use><use x="2599" y="2868" href="#P10"></use><use x="2740" y="3226" href="#P3"></use><use x="2720" y="3316" href="#P11"></use><use x="2679" y="3613" href="#P7"></use><use x="2588" y="3799" href="#P0"></use><use x="2761" y="3932" href="#P13"></use><use x="2768" y="4076" href="#P4"></use><use x="2636" y="4373" href="#P7"></use><use x="2681" y="4532" href="#P0"></use><use x="2654" y="4740" href="#P5"></use><use x="2592" y="4824" href="#P2"></use><use x="2637" y="5052" href="#P1"></use><use x="2552" y="5386" href="#P2"></use><use x="2718" y="-225" href="#P7"></use><use x="2703" y="-29" href="#P1"></use><use x="2760" y="92" href="#P10"></use><use x="2667" y="476" href="#P8"></use><use x="2671" y="632" href="#P9"></use><use x="2691" y="687" href="#P2"></use><use x="2787" y="978" href="#P12"></use><use x="2656" y="1150" href="#P10"></use><use x="2627" y="1363" href="#P8"></use><use x="2693" y="1669" href="#P11"></use><use x="2622" y="1746" href="#P2"></use><use x="2774" y="1993" href="#P6"></use><use x="2784" y="2110" href="#P11"></use><use x="2848" y="2270" href="#P12"></use><use x="2894" y="2584" href="#P8"></use><use x="2768" y="2662" href="#P1"></use><use x="2932" y="2969" href="#P6"></use><use x="2800" y="3163" href="#P8"></use><use x="2861" y="3400" href="#P12"></use><use x="2808" y="3631" href="#P11"></use><use x="2876" y="3770" href="#P9"></use><use x="2848" y="3888" href="#P5"></use><use x="2727" y="4173" href="#P9"></use><use x="2739" y="4358" href="#P10"></use><use x="2833" y="4487" href="#P11"></use><use x="2725" y="4758" href="#P3"></use><use x="2809" y="4905" href="#P8"></use><use x="2892" y="5062" href="#P8"></use><use x="2920" y="5307" href="#P3"></use><use x="3012" y="-258" href="#P11"></use><use x="2944" y="-27" href="#P1"></use><use x="2985" y="237" href="#P1"></use><use x="3010" y="387" href="#P7"></use><use x="3020" y="578" href="#P9"></use><use x="2838" y="829" href="#P0"></use><use x="3008" y="992" href="#P3"></use><use x="2982" y="1150" href="#P12"></use><use x="2943" y="1453" href="#P2"></use><use x="2971" y="1533" href="#P5"></use><use x="3006" y="1783" href="#P0"></use><use x="2947" y="1994" href="#P5"></use><use x="3000" y="2236" href="#P4"></use><use x="2968" y="2320" href="#P3"></use><use x="2971" y="2518" href="#P7"></use><use x="2990" y="2820" href="#P2"></use><use x="2999" y="2899" href="#P1"></use><use x="2969" y="3204" href="#P2"></use><use x="3039" y="3377" href="#P9"></use><use x="3091" y="3566" href="#P7"></use><use x="3028" y="3666" href="#P4"></use><use x="2954" y="3974" href="#P8"></use><use x="2926" y="4183" href="#P10"></use><use x="3106" y="4350" href="#P12"></use><use x="3070" y="4484" href="#P3"></use><use x="2968" y="4780" href="#P9"></use><use x="3022" y="4823" href="#P4"></use><use x="3026" y="5021" href="#P7"></use><use x="2997" y="5225" href="#P10"></use><use x="3213" y="-306" href="#P6"></use><use x="3164" y="-33" href="#P8"></use><use x="3083" y="116" href="#P11"></use><use x="3175" y="415" href="#P6"></use><use x="3073" y="494" href="#P2"></use><use x="3209" y="822" href="#P5"></use><use x="3081" y="969" href="#P0"></use><use x="3165" y="1162" href="#P7"></use><use x="3111" y="1374" href="#P5"></use><use x="3089" y="1640" href="#P4"></use><use x="3196" y="1788" href="#P5"></use><use x="3137" y="2127" href="#P4"></use><use x="3205" y="2294" href="#P11"></use><use x="3141" y="2309" href="#P1"></use><use x="3291" y="2554" href="#P1"></use><use x="3227" y="2832" href="#P5"></use><use x="3236" y="2946" href="#P10"></use><use x="3211" y="3175" href="#P7"></use><use x="3245" y="3325" href="#P2"></use><use x="3117" y="3456" href="#P6"></use><use x="3225" y="3773" href="#P13"></use><use x="3194" y="3892" href="#P0"></use><use x="3250" y="4242" href="#P8"></use><use x="3336" y="4280" href="#P13"></use><use x="3147" y="4468" href="#P11"></use><use x="3194" y="4800" href="#P9"></use><use x="3301" y="4942" href="#P10"></use><use x="3152" y="5114" href="#P12"></use><use x="3283" y="5357" href="#P10"></use><use x="3411" y="-313" href="#P8"></use><use x="3328" y="-108" href="#P8"></use><use x="3413" y="209" href="#P6"></use><use x="3311" y="462" href="#P4"></use><use x="3301" y="538" href="#P9"></use><use x="3375" y="813" href="#P6"></use><use x="3416" y="1007" href="#P7"></use><use x="3338" y="1172" href="#P7"></use><use x="3415" y="1340" href="#P0"></use><use x="3327" y="1691" href="#P9"></use><use x="3281" y="1890" href="#P1"></use><use x="3331" y="2052" href="#P12"></use><use x="3320" y="2217" href="#P8"></use><use x="3288" y="2387" href="#P0"></use><use x="3460" y="2590" href="#P4"></use><use x="3369" y="2814" href="#P11"></use><use x="3461" y="2896" href="#P7"></use><use x="3463" y="3241" href="#P6"></use><use x="3386" y="3457" href="#P11"></use><use x="3359" y="3591" href="#P4"></use><use x="3466" y="3682" href="#P7"></use><use x="3338" y="3877" href="#P10"></use><use x="3379" y="4245" href="#P8"></use><use x="3457" y="4387" href="#P1"></use><use x="3535" y="4629" href="#P6"></use><use x="3495" y="4718" href="#P9"></use><use x="3520" y="4964" href="#P2"></use><use x="3414" y="5044" href="#P10"></use><use x="3539" y="5335" href="#P0"></use><use x="3534" y="-298" href="#P6"></use><use x="3610" y="33" href="#P6"></use><use x="3549" y="208" href="#P11"></use><use x="3652" y="322" href="#P9"></use><use x="3498" y="618" href="#P13"></use><use x="3506" y="756" href="#P11"></use><use x="3465" y="998" href="#P4"></use><use x="3459" y="1122" href="#P2"></use><use x="3528" y="1520" href="#P9"></use><use x="3599" y="1600" href="#P11"></use><use x="3600" y="1850" href="#P10"></use><use x="3553" y="2121" href="#P1"></use><use x="3603" y="2250" href="#P13"></use><use x="3585" y="2559" href="#P0"></use><use x="3609" y="2598" href="#P12"></use><use x="3527" y="2807" href="#P6"></use><use x="3620" y="2950" href="#P10"></use><use x="3641" y="3157" href="#P4"></use><use x="3559" y="3397" href="#P11"></use><use x="3626" y="3490" href="#P0"></use><use x="3623" y="3788" href="#P10"></use><use x="3680" y="3954" href="#P0"></use><use x="3594" y="4116" href="#P13"></use><use x="3560" y="4415" href="#P11"></use><use x="3737" y="4595" href="#P7"></use><use x="3631" y="4672" href="#P0"></use><use x="3707" y="4875" href="#P4"></use><use x="3757" y="5084" href="#P7"></use><use x="3568" y="5234" href="#P8"></use><use x="3728" y="-173" href="#P4"></use><use x="3705" y="24" href="#P7"></use><use x="3741" y="157" href="#P8"></use><use x="3814" y="296" href="#P7"></use><use x="3847" y="597" href="#P7"></use><use x="3748" y="709" href="#P11"></use><use x="3828" y="913" href="#P10"></use><use x="3807" y="1231" href="#P4"></use><use x="3719" y="1463" href="#P10"></use><use x="3754" y="1594" href="#P3"></use><use x="3731" y="1807" href="#P10"></use><use x="3854" y="2026" href="#P1"></use><use x="3839" y="2216" href="#P3"></use><use x="3848" y="2544" href="#P4"></use><use x="3684" y="2699" href="#P8"></use><use x="3822" y="2820" href="#P2"></use><use x="3750" y="2922" href="#P7"></use><use x="3795" y="3271" href="#P11"></use><use x="3827" y="3479" href="#P12"></use><use x="3796" y="3674" href="#P10"></use><use x="3788" y="3831" href="#P1"></use><use x="3898" y="4048" href="#P7"></use><use x="3884" y="4189" href="#P1"></use><use x="3907" y="4360" href="#P12"></use><use x="3863" y="4596" href="#P6"></use><use x="3916" y="4811" href="#P5"></use><use x="3843" y="4963" href="#P11"></use><use x="3917" y="5114" href="#P10"></use><use x="3783" y="5289" href="#P12"></use><use x="3940" y="-157" href="#P0"></use><use x="3942" y="-37" href="#P3"></use><use x="3912" y="173" href="#P2"></use><use x="3885" y="276" href="#P10"></use><use x="3969" y="565" href="#P4"></use><use x="4049" y="810" href="#P7"></use><use x="3998" y="1032" href="#P12"></use><use x="3958" y="1138" href="#P11"></use><use x="4107" y="1466" href="#P12"></use><use x="4051" y="1694" href="#P2"></use><use x="3978" y="1788" href="#P1"></use><use x="3887" y="2078" href="#P1"></use><use x="3976" y="2278" href="#P5"></use><use x="4069" y="2417" href="#P8"></use><use x="3965" y="2747" href="#P13"></use><use x="3967" y="2771" href="#P12"></use><use x="3960" y="3067" href="#P8"></use><use x="4075" y="3156" href="#P2"></use><use x="3927" y="3383" href="#P2"></use><use x="3994" y="3567" href="#P7"></use><use x="4105" y="3893" href="#P12"></use><use x="4083" y="4052" href="#P13"></use><use x="4094" y="4278" href="#P3"></use><use x="4007" y="4399" href="#P1"></use><use x="4021" y="4622" href="#P2"></use><use x="4100" y="4736" href="#P10"></use><use x="3957" y="4927" href="#P3"></use><use x="4072" y="5060" href="#P4"></use><use x="4036" y="5243" href="#P7"></use><use x="4141" y="-245" href="#P7"></use><use x="4212" y="-15" href="#P12"></use><use x="4115" y="103" href="#P12"></use><use x="4247" y="362" href="#P7"></use><use x="4199" y="486" href="#P13"></use><use x="4126" y="878" href="#P10"></use><use x="4186" y="945" href="#P0"></use><use x="4244" y="1126" href="#P7"></use><use x="4135" y="1403" href="#P12"></use><use x="4207" y="1712" href="#P0"></use><use x="4160" y="1857" href="#P3"></use><use x="4102" y="2021" href="#P10"></use><use x="4205" y="2342" href="#P8"></use><use x="4220" y="2509" href="#P2"></use><use x="4093" y="2729" href="#P8"></use><use x="4101" y="2815" href="#P4"></use><use x="4200" y="3093" href="#P0"></use><use x="4149" y="3204" href="#P0"></use><use x="4210" y="3452" href="#P10"></use><use x="4241" y="3586" href="#P2"></use><use x="4247" y="3763" href="#P7"></use><use x="4279" y="3983" href="#P7"></use><use x="4278" y="4176" href="#P3"></use><use x="4170" y="4320" href="#P10"></use><use x="4309" y="4573" href="#P3"></use><use x="4199" y="4740" href="#P2"></use><use x="4274" y="4827" href="#P5"></use><use x="4234" y="5096" href="#P13"></use><use x="4172" y="5275" href="#P9"></use><use x="4313" y="-153" href="#P13"></use><use x="4381" y="-82" href="#P11"></use><use x="4494" y="189" href="#P8"></use><use x="4488" y="387" href="#P0"></use><use x="4356" y="542" href="#P0"></use><use x="4403" y="710" href="#P7"></use><use x="4406" y="957" href="#P2"></use><use x="4514" y="1291" href="#P7"></use><use x="4326" y="1451" href="#P12"></use><use x="4511" y="1685" href="#P6"></use><use x="4347" y="1940" href="#P1"></use><use x="4422" y="2006" href="#P7"></use><use x="4434" y="2280" href="#P12"></use><use x="4334" y="2458" href="#P3"></use><use x="4370" y="2647" href="#P1"></use><use x="4353" y="2848" href="#P6"></use><use x="4285" y="2900" href="#P8"></use><use x="4292" y="3279" href="#P5"></use><use x="4372" y="3384" href="#P0"></use><use x="4325" y="3579" href="#P4"></use><use x="4435" y="3753" href="#P0"></use><use x="4358" y="4063" href="#P8"></use><use x="4474" y="4274" href="#P10"></use><use x="4505" y="4468" href="#P1"></use><use x="4450" y="4543" href="#P10"></use><use x="4379" y="4793" href="#P11"></use><use x="4444" y="4873" href="#P9"></use><use x="4471" y="5086" href="#P7"></use><use x="4393" y="5333" href="#P1"></use><use x="4567" y="-137" href="#P1"></use><use x="4561" y="-40" href="#P3"></use><use x="4627" y="239" href="#P5"></use><use x="4610" y="454" href="#P0"></use><use x="4592" y="610" href="#P5"></use><use x="4529" y="816" href="#P5"></use><use x="4627" y="932" href="#P11"></use><use x="4552" y="1221" href="#P9"></use><use x="4619" y="1425" href="#P3"></use><use x="4559" y="1621" href="#P7"></use><use x="4525" y="1882" href="#P10"></use><use x="4669" y="1959" href="#P4"></use><use x="4564" y="2178" href="#P11"></use><use x="4627" y="2419" href="#P5"></use><use x="4559" y="2603" href="#P2"></use><use x="4585" y="2804" href="#P1"></use><use x="4586" y="2975" href="#P6"></use><use x="4649" y="3296" href="#P8"></use><use x="4596" y="3341" href="#P7"></use><use x="4572" y="3557" href="#P6"></use><use x="4612" y="3809" href="#P5"></use><use x="4635" y="3930" href="#P0"></use><use x="4633" y="4209" href="#P0"></use><use x="4674" y="4351" href="#P6"></use><use x="4653" y="4494" href="#P1"></use><use x="4531" y="4780" href="#P10"></use><use x="4639" y="4918" href="#P5"></use><use x="4696" y="5099" href="#P7"></use><use x="4533" y="5193" href="#P9"></use><use x="4818" y="-171" href="#P0"></use><use x="4831" y="-97" href="#P13"></use><use x="4882" y="138" href="#P11"></use><use x="4848" y="335" href="#P6"></use><use x="4832" y="652" href="#P7"></use><use x="4934" y="712" href="#P8"></use><use x="4842" y="915" href="#P1"></use><use x="4757" y="1155" href="#P3"></use><use x="4792" y="1480" href="#P11"></use><use x="4934" y="1680" href="#P6"></use><use x="4746" y="1806" href="#P0"></use><use x="4883" y="2005" href="#P1"></use><use x="4849" y="2284" href="#P2"></use><use x="4764" y="2372" href="#P7"></use><use x="4687" y="2575" href="#P0"></use><use x="4821" y="2899" href="#P2"></use><use x="4750" y="3084" href="#P11"></use><use x="4709" y="3241" href="#P13"></use><use x="4688" y="3443" href="#P9"></use><use x="4746" y="3537" href="#P10"></use><use x="4857" y="3902" href="#P1"></use><use x="4736" y="4089" href="#P12"></use><use x="4697" y="4131" href="#P9"></use><use x="4796" y="4345" href="#P12"></use><use x="4844" y="4485" href="#P7"></use><use x="4780" y="4689" href="#P12"></use><use x="4775" y="4890" href="#P10"></use><use x="4771" y="5170" href="#P13"></use><use x="4754" y="5213" href="#P2"></use><use x="4964" y="-173" href="#P6"></use><use x="4987" y="-26" href="#P13"></use><use x="4931" y="281" href="#P4"></use><use x="5050" y="355" href="#P1"></use><use x="5081" y="684" href="#P0"></use><use x="5001" y="837" href="#P8"></use><use x="4954" y="936" href="#P7"></use><use x="5010" y="1221" href="#P3"></use><use x="5092" y="1464" href="#P13"></use><use x="5099" y="1671" href="#P8"></use><use x="5095" y="1849" href="#P13"></use><use x="4998" y="2013" href="#P11"></use><use x="5082" y="2300" href="#P12"></use><use x="5068" y="2338" href="#P11"></use><use x="5039" y="2677" href="#P9"></use><use x="4988" y="2835" href="#P10"></use><use x="5013" y="3066" href="#P11"></use><use x="5014" y="3142" href="#P8"></use><use x="5012" y="3509" href="#P6"></use><use x="5044" y="3670" href="#P11"></use><use x="4942" y="3876" href="#P8"></use><use x="5007" y="3922" href="#P12"></use><use x="4973" y="4216" href="#P9"></use><use x="4877" y="4368" href="#P0"></use><use x="5042" y="4541" href="#P4"></use><use x="4992" y="4679" href="#P2"></use><use x="4996" y="5004" href="#P8"></use><use x="4990" y="5057" href="#P10"></use><use x="4926" y="5202" href="#P8"></use><use x="5096" y="-275" href="#P11"></use><use x="5227" y="66" href="#P10"></use><use x="5280" y="168" href="#P11"></use><use x="5242" y="490" href="#P0"></use><use x="5240" y="685" href="#P11"></use><use x="5287" y="874" href="#P1"></use><use x="5275" y="1006" href="#P10"></use><use x="5199" y="1271" href="#P10"></use><use x="5151" y="1433" href="#P9"></use><use x="5308" y="1520" href="#P13"></use><use x="5250" y="1765" href="#P11"></use><use x="5130" y="2093" href="#P13"></use><use x="5270" y="2258" href="#P2"></use><use x="5159" y="2466" href="#P9"></use><use x="5199" y="2552" href="#P0"></use><use x="5088" y="2723" href="#P1"></use><use x="5088" y="2954" href="#P3"></use><use x="5085" y="3162" href="#P9"></use><use x="5148" y="3379" href="#P12"></use><use x="5204" y="3709" href="#P8"></use><use x="5150" y="3867" href="#P7"></use><use x="5164" y="4024" href="#P0"></use><use x="5144" y="4188" href="#P12"></use><use x="5204" y="4402" href="#P6"></use><use x="5073" y="4650" href="#P9"></use><use x="5121" y="4806" href="#P13"></use><use x="5158" y="4834" href="#P13"></use><use x="5070" y="5147" href="#P8"></use><use x="5125" y="5331" href="#P6"></use></g></svg>